<svg xmlns="http://www.w3.org/2000/svg" viewBox="0 0 64 64"><circle cx="32" cy="32" r="30" fill="#25d366"/><path fill="#fff" d="M24.6 18.5c-.7-1.5-1.4-1.5-2.1-1.5h-1.8c-.6 0-1.6.2-2.5 1.2-.8.9-3.2 3.1-3.2 7.6s3.3 8.8 3.8 9.4c.5.6 6.4 10.2 15.9 13.9 7.9 3.1 9.5 2.5 11.2 2.3 1.7-.3 5.5-2.2 6.3-4.4.8-2.1.8-4 .6-4.4-.2-.4-.8-.6-1.7-1.1l-5.9-2.9c-.9-.4-1.5-.6-2.1.4-.6.9-2.4 2.9-2.9 3.5-.5.6-1.1.7-2 .2-.9-.4-3.8-1.4-7.3-4.4-2.7-2.4-4.5-5.3-5.1-6.2-.5-.9-.1-1.4.4-1.8.4-.4.9-1.1 1.3-1.6.4-.6.6-.9.9-1.5.3-.6.1-1.1-.1-1.6l-2.7-6.1Z"/></svg>
